<?xml version="1.0" encoding="utf-8" ?>
<svg baseProfile="tiny" height="4000" version="1.2" width="6000" xmlns="http://www.w3.org/2000/svg" xmlns:ev="http://www.w3.org/2001/xml-events" xmlns:xlink="http://www.w3.org/1999/xlink"><defs /><line stroke="black" stroke-width="6" x1="5280.1287" x2="5176.2056" y1="733.4043" y2="793.4043" /><text fill="black" font-size="210" text-anchor="middle" x="5436.01326319466" y="643.4042553191491">-30</text><line stroke="blue" stroke-width="6" x1="5280.1287" x2="3409.5138" y1="733.4043" y2="1813.4043" /><line stroke="black" stroke-width="6" x1="5302.0716" x2="5197.1172" y1="772.1882" y2="830.3654" /><line stroke="black" stroke-width="6" x1="5323.3343" x2="5217.3806" y1="811.3492" y2="867.6858" /><line stroke="black" stroke-width="6" x1="5343.9103" x2="5236.9895" y1="850.8753" y2="905.3542" /><line stroke="black" stroke-width="6" x1="5363.7933" x2="5255.938" y1="890.7545" y2="943.3591" /><line stroke="black" stroke-width="6" x1="5382.9773" x2="5274.2204" y1="930.9747" y2="981.6888" /><line stroke="blue" stroke-width="6" x1="5382.9773" x2="3697.2448" y1="930.9747" y2="1717.0446" /><line stroke="black" stroke-width="6" x1="5401.4565" x2="5291.831" y1="971.5235" y2="1020.3319" /><line stroke="black" stroke-width="6" x1="5419.2252" x2="5308.7646" y1="1012.3886" y2="1059.2763" /><line stroke="black" stroke-width="6" x1="5436.2779" x2="5325.0159" y1="1053.5576" y2="1098.5104" /><line stroke="black" stroke-width="6" x1="5452.6096" x2="5340.5799" y1="1095.018" y2="1138.0222" /><line stroke="black" stroke-width="6" x1="5468.2152" x2="5355.4521" y1="1136.7571" y2="1177.7995" /><text fill="black" font-size="210" text-anchor="middle" x="5637.359873748039" y="1075.1934550720125">-20</text><line stroke="blue" stroke-width="6" x1="5468.2152" x2="3438.4791" y1="1136.7571" y2="1875.5206" /><line stroke="black" stroke-width="6" x1="5483.09" x2="5369.6278" y1="1178.7622" y2="1217.8303" /><line stroke="black" stroke-width="6" x1="5497.2294" x2="5383.1026" y1="1221.0204" y2="1258.1025" /><line stroke="black" stroke-width="6" x1="5510.6292" x2="5395.8726" y1="1263.5191" y2="1298.6037" /><line stroke="black" stroke-width="6" x1="5523.2852" x2="5407.9338" y1="1306.245" y2="1339.3215" /><line stroke="black" stroke-width="6" x1="5535.1936" x2="5419.2825" y1="1349.1854" y2="1380.2437" /><line stroke="blue" stroke-width="6" x1="5535.1936" x2="3738.5716" y1="1349.1854" y2="1830.5888" /><line stroke="black" stroke-width="6" x1="5546.3508" x2="5429.9153" y1="1392.3271" y2="1421.3577" /><line stroke="black" stroke-width="6" x1="5556.7534" x2="5439.8289" y1="1435.6569" y2="1462.651" /><line stroke="black" stroke-width="6" x1="5566.3981" x2="5449.0204" y1="1479.1616" y2="1504.111" /><line stroke="black" stroke-width="6" x1="5575.2822" x2="5457.4869" y1="1522.8281" y2="1545.7252" /><line stroke="black" stroke-width="6" x1="5583.4028" x2="5465.2258" y1="1566.643" y2="1587.4807" /><text fill="black" font-size="210" text-anchor="middle" x="5760.668169190389" y="1535.3862786575773">-10</text><line stroke="blue" stroke-width="6" x1="5583.4028" x2="3456.218" y1="1566.643" y2="1941.723" /><line stroke="black" stroke-width="6" x1="5590.7575" x2="5472.2349" y1="1610.5929" y2="1629.365" /><line stroke="black" stroke-width="6" x1="5597.344" x2="5478.5118" y1="1654.6644" y2="1671.3652" /><line stroke="black" stroke-width="6" x1="5603.1604" x2="5484.0548" y1="1698.8442" y2="1713.4686" /><line stroke="black" stroke-width="6" x1="5608.2048" x2="5488.8622" y1="1743.1188" y2="1755.6622" /><line stroke="black" stroke-width="6" x1="5612.4758" x2="5492.9325" y1="1787.4747" y2="1797.9334" /><line stroke="blue" stroke-width="6" x1="5612.4758" x2="3759.5537" y1="1787.4747" y2="1949.5844" /><line stroke="black" stroke-width="6" x1="5615.972" x2="5496.2644" y1="1831.8984" y2="1840.2691" /><line stroke="black" stroke-width="6" x1="5618.6924" x2="5498.8569" y1="1876.3763" y2="1882.6566" /><line stroke="black" stroke-width="6" x1="5620.6362" x2="5500.7093" y1="1920.8949" y2="1925.0828" /><line stroke="black" stroke-width="6" x1="5621.8026" x2="5501.8209" y1="1965.4407" y2="1967.535" /><line stroke="black" stroke-width="6" x1="5622.1915" x2="5502.1915" y1="2010.0" y2="2010.0" /><text fill="black" font-size="210" text-anchor="middle" x="5802.191489361702" y="2010.0">0</text><line stroke="blue" stroke-width="6" x1="5622.1915" x2="3462.1915" y1="2010.0" y2="2010.0" /><line stroke="black" stroke-width="6" x1="5621.8026" x2="5501.8209" y1="2054.5593" y2="2052.465" /><line stroke="black" stroke-width="6" x1="5620.6362" x2="5500.7093" y1="2099.1051" y2="2094.9172" /><line stroke="black" stroke-width="6" x1="5618.6924" x2="5498.8569" y1="2143.6237" y2="2137.3434" /><line stroke="black" stroke-width="6" x1="5615.972" x2="5496.2644" y1="2188.1016" y2="2179.7309" /><line stroke="black" stroke-width="6" x1="5612.4758" x2="5492.9325" y1="2232.5253" y2="2222.0666" /><line stroke="blue" stroke-width="6" x1="5612.4758" x2="3759.5537" y1="2232.5253" y2="2070.4156" /><line stroke="black" stroke-width="6" x1="5608.2048" x2="5488.8622" y1="2276.8812" y2="2264.3378" /><line stroke="black" stroke-width="6" x1="5603.1604" x2="5484.0548" y1="2321.1558" y2="2306.5314" /><line stroke="black" stroke-width="6" x1="5597.344" x2="5478.5118" y1="2365.3356" y2="2348.6348" /><line stroke="black" stroke-width="6" x1="5590.7575" x2="5472.2349" y1="2409.4071" y2="2390.635" /><line stroke="black" stroke-width="6" x1="5583.4028" x2="5465.2258" y1="2453.357" y2="2432.5193" /><text fill="black" font-size="210" text-anchor="middle" x="5760.668169190389" y="2484.6137213424227">10</text><line stroke="blue" stroke-width="6" x1="5583.4028" x2="3456.218" y1="2453.357" y2="2078.277" /><line stroke="black" stroke-width="6" x1="5575.2822" x2="5457.4869" y1="2497.1719" y2="2474.2748" /><line stroke="black" stroke-width="6" x1="5566.3981" x2="5449.0204" y1="2540.8384" y2="2515.889" /><line stroke="black" stroke-width="6" x1="5556.7534" x2="5439.8289" y1="2584.3431" y2="2557.349" /><line stroke="black" stroke-width="6" x1="5546.3508" x2="5429.9153" y1="2627.6729" y2="2598.6423" /><line stroke="black" stroke-width="6" x1="5535.1936" x2="5419.2825" y1="2670.8146" y2="2639.7563" /><line stroke="blue" stroke-width="6" x1="5535.1936" x2="3738.5716" y1="2670.8146" y2="2189.4112" /><line stroke="black" stroke-width="6" x1="5523.2852" x2="5407.9338" y1="2713.755" y2="2680.6785" /><line stroke="black" stroke-width="6" x1="5510.6292" x2="5395.8726" y1="2756.4809" y2="2721.3963" /><line stroke="black" stroke-width="6" x1="5497.2294" x2="5383.1026" y1="2798.9796" y2="2761.8975" /><line stroke="black" stroke-width="6" x1="5483.09" x2="5369.6278" y1="2841.2378" y2="2802.1697" /><line stroke="black" stroke-width="6" x1="5468.2152" x2="5355.4521" y1="2883.2429" y2="2842.2005" /><text fill="black" font-size="210" text-anchor="middle" x="5637.359873748039" y="2944.8065449279875">20</text><line stroke="blue" stroke-width="6" x1="5468.2152" x2="3438.4791" y1="2883.2429" y2="2144.4794" /><line stroke="black" stroke-width="6" x1="5452.6096" x2="5340.5799" y1="2924.982" y2="2881.9778" /><line stroke="black" stroke-width="6" x1="5436.2779" x2="5325.0159" y1="2966.4424" y2="2921.4896" /><line stroke="black" stroke-width="6" x1="5419.2252" x2="5308.7646" y1="3007.6114" y2="2960.7237" /><line stroke="black" stroke-width="6" x1="5401.4565" x2="5291.831" y1="3048.4765" y2="2999.6681" /><line stroke="black" stroke-width="6" x1="5382.9773" x2="5274.2204" y1="3089.0253" y2="3038.3112" /><line stroke="blue" stroke-width="6" x1="5382.9773" x2="3697.2448" y1="3089.0253" y2="2302.9554" /><line stroke="black" stroke-width="6" x1="5363.7933" x2="5255.938" y1="3129.2455" y2="3076.6409" /><line stroke="black" stroke-width="6" x1="5343.9103" x2="5236.9895" y1="3169.1247" y2="3114.6458" /><line stroke="black" stroke-width="6" x1="5323.3343" x2="5217.3806" y1="3208.6508" y2="3152.3142" /><line stroke="black" stroke-width="6" x1="5302.0716" x2="5197.1172" y1="3247.8118" y2="3189.6346" /><line stroke="black" stroke-width="6" x1="5280.1287" x2="5176.2056" y1="3286.5957" y2="3226.5957" /><text fill="black" font-size="210" text-anchor="middle" x="5436.01326319466" y="3376.5957446808507">30</text><line stroke="blue" stroke-width="6" x1="5280.1287" x2="3409.5138" y1="3286.5957" y2="2206.5957" /><line stroke="black" stroke-width="6" x1="857.8713" x2="961.7944" y1="3286.5957" y2="3226.5957" /><text fill="black" font-size="210" text-anchor="middle" x="701.9867368053406" y="3376.5957446808507">-30</text><line stroke="blue" stroke-width="6" x1="857.8713" x2="2728.4862" y1="3286.5957" y2="2206.5957" /><line stroke="black" stroke-width="6" x1="835.9284" x2="940.8828" y1="3247.8118" y2="3189.6346" /><line stroke="black" stroke-width="6" x1="814.6657" x2="920.6194" y1="3208.6508" y2="3152.3142" /><line stroke="black" stroke-width="6" x1="794.0897" x2="901.0105" y1="3169.1247" y2="3114.6458" /><line stroke="black" stroke-width="6" x1="774.2067" x2="882.062" y1="3129.2455" y2="3076.6409" /><line stroke="black" stroke-width="6" x1="755.0227" x2="863.7796" y1="3089.0253" y2="3038.3112" /><line stroke="blue" stroke-width="6" x1="755.0227" x2="2440.7552" y1="3089.0253" y2="2302.9554" /><line stroke="black" stroke-width="6" x1="736.5435" x2="846.169" y1="3048.4765" y2="2999.6681" /><line stroke="black" stroke-width="6" x1="718.7748" x2="829.2354" y1="3007.6114" y2="2960.7237" /><line stroke="black" stroke-width="6" x1="701.7221" x2="812.9841" y1="2966.4424" y2="2921.4896" /><line stroke="black" stroke-width="6" x1="685.3904" x2="797.4201" y1="2924.982" y2="2881.9778" /><line stroke="black" stroke-width="6" x1="669.7848" x2="782.5479" y1="2883.2429" y2="2842.2005" /><text fill="black" font-size="210" text-anchor="middle" x="500.6401262519621" y="2944.806544927988">-20</text><line stroke="blue" stroke-width="6" x1="669.7848" x2="2699.5209" y1="2883.2429" y2="2144.4794" /><line stroke="black" stroke-width="6" x1="654.91" x2="768.3722" y1="2841.2378" y2="2802.1697" /><line stroke="black" stroke-width="6" x1="640.7706" x2="754.8974" y1="2798.9796" y2="2761.8975" /><line stroke="black" stroke-width="6" x1="627.3708" x2="742.1274" y1="2756.4809" y2="2721.3963" /><line stroke="black" stroke-width="6" x1="614.7148" x2="730.0662" y1="2713.755" y2="2680.6785" /><line stroke="black" stroke-width="6" x1="602.8064" x2="718.7175" y1="2670.8146" y2="2639.7563" /><line stroke="blue" stroke-width="6" x1="602.8064" x2="2399.4284" y1="2670.8146" y2="2189.4112" /><line stroke="black" stroke-width="6" x1="591.6492" x2="708.0847" y1="2627.6729" y2="2598.6423" /><line stroke="black" stroke-width="6" x1="581.2466" x2="698.1711" y1="2584.3431" y2="2557.349" /><line stroke="black" stroke-width="6" x1="571.6019" x2="688.9796" y1="2540.8384" y2="2515.889" /><line stroke="black" stroke-width="6" x1="562.7178" x2="680.5131" y1="2497.1719" y2="2474.2748" /><line stroke="black" stroke-width="6" x1="554.5972" x2="672.7742" y1="2453.357" y2="2432.5193" /><text fill="black" font-size="210" text-anchor="middle" x="377.3318308096118" y="2484.6137213424227">-10</text><line stroke="blue" stroke-width="6" x1="554.5972" x2="2681.782" y1="2453.357" y2="2078.277" /><line stroke="black" stroke-width="6" x1="547.2425" x2="665.7651" y1="2409.4071" y2="2390.635" /><line stroke="black" stroke-width="6" x1="540.656" x2="659.4882" y1="2365.3356" y2="2348.6348" /><line stroke="black" stroke-width="6" x1="534.8396" x2="653.9452" y1="2321.1558" y2="2306.5314" /><line stroke="black" stroke-width="6" x1="529.7952" x2="649.1378" y1="2276.8812" y2="2264.3378" /><line stroke="black" stroke-width="6" x1="525.5242" x2="645.0675" y1="2232.5253" y2="2222.0666" /><line stroke="blue" stroke-width="6" x1="525.5242" x2="2378.4463" y1="2232.5253" y2="2070.4156" /><line stroke="black" stroke-width="6" x1="522.028" x2="641.7356" y1="2188.1016" y2="2179.7309" /><line stroke="black" stroke-width="6" x1="519.3076" x2="639.1431" y1="2143.6237" y2="2137.3434" /><line stroke="black" stroke-width="6" x1="517.3638" x2="637.2907" y1="2099.1051" y2="2094.9172" /><line stroke="black" stroke-width="6" x1="516.1974" x2="636.1791" y1="2054.5593" y2="2052.465" /><line stroke="black" stroke-width="6" x1="515.8085" x2="635.8085" y1="2010.0" y2="2010.0" /><text fill="black" font-size="210" text-anchor="middle" x="335.8085106382978" y="2010.0000000000002">0</text><line stroke="blue" stroke-width="6" x1="515.8085" x2="2675.8085" y1="2010.0" y2="2010.0" /><line stroke="black" stroke-width="6" x1="516.1974" x2="636.1791" y1="1965.4407" y2="1967.535" /><line stroke="black" stroke-width="6" x1="517.3638" x2="637.2907" y1="1920.8949" y2="1925.0828" /><line stroke="black" stroke-width="6" x1="519.3076" x2="639.1431" y1="1876.3763" y2="1882.6566" /><line stroke="black" stroke-width="6" x1="522.028" x2="641.7356" y1="1831.8984" y2="1840.2691" /><line stroke="black" stroke-width="6" x1="525.5242" x2="645.0675" y1="1787.4747" y2="1797.9334" /><line stroke="blue" stroke-width="6" x1="525.5242" x2="2378.4463" y1="1787.4747" y2="1949.5844" /><line stroke="black" stroke-width="6" x1="529.7952" x2="649.1378" y1="1743.1188" y2="1755.6622" /><line stroke="black" stroke-width="6" x1="534.8396" x2="653.9452" y1="1698.8442" y2="1713.4686" /><line stroke="black" stroke-width="6" x1="540.656" x2="659.4882" y1="1654.6644" y2="1671.3652" /><line stroke="black" stroke-width="6" x1="547.2425" x2="665.7651" y1="1610.5929" y2="1629.365" /><line stroke="black" stroke-width="6" x1="554.5972" x2="672.7742" y1="1566.643" y2="1587.4807" /><text fill="black" font-size="210" text-anchor="middle" x="377.3318308096118" y="1535.386278657577">10</text><line stroke="blue" stroke-width="6" x1="554.5972" x2="2681.782" y1="1566.643" y2="1941.723" /><line stroke="black" stroke-width="6" x1="562.7178" x2="680.5131" y1="1522.8281" y2="1545.7252" /><line stroke="black" stroke-width="6" x1="571.6019" x2="688.9796" y1="1479.1616" y2="1504.111" /><line stroke="black" stroke-width="6" x1="581.2466" x2="698.1711" y1="1435.6569" y2="1462.651" /><line stroke="black" stroke-width="6" x1="591.6492" x2="708.0847" y1="1392.3271" y2="1421.3577" /><line stroke="black" stroke-width="6" x1="602.8064" x2="718.7175" y1="1349.1854" y2="1380.2437" /><line stroke="blue" stroke-width="6" x1="602.8064" x2="2399.4284" y1="1349.1854" y2="1830.5888" /><line stroke="black" stroke-width="6" x1="614.7148" x2="730.0662" y1="1306.245" y2="1339.3215" /><line stroke="black" stroke-width="6" x1="627.3708" x2="742.1274" y1="1263.5191" y2="1298.6037" /><line stroke="black" stroke-width="6" x1="640.7706" x2="754.8974" y1="1221.0204" y2="1258.1025" /><line stroke="black" stroke-width="6" x1="654.91" x2="768.3722" y1="1178.7622" y2="1217.8303" /><line stroke="black" stroke-width="6" x1="669.7848" x2="782.5479" y1="1136.7571" y2="1177.7995" /><text fill="black" font-size="210" text-anchor="middle" x="500.64012625196165" y="1075.193455072013">20</text><line stroke="blue" stroke-width="6" x1="669.7848" x2="2699.5209" y1="1136.7571" y2="1875.5206" /><line stroke="black" stroke-width="6" x1="685.3904" x2="797.4201" y1="1095.018" y2="1138.0222" /><line stroke="black" stroke-width="6" x1="701.7221" x2="812.9841" y1="1053.5576" y2="1098.5104" /><line stroke="black" stroke-width="6" x1="718.7748" x2="829.2354" y1="1012.3886" y2="1059.2763" /><line stroke="black" stroke-width="6" x1="736.5435" x2="846.169" y1="971.5235" y2="1020.3319" /><line stroke="black" stroke-width="6" x1="755.0227" x2="863.7796" y1="930.9747" y2="981.6888" /><line stroke="blue" stroke-width="6" x1="755.0227" x2="2440.7552" y1="930.9747" y2="1717.0446" /><line stroke="black" stroke-width="6" x1="774.2067" x2="882.062" y1="890.7545" y2="943.3591" /><line stroke="black" stroke-width="6" x1="794.0897" x2="901.0105" y1="850.8753" y2="905.3542" /><line stroke="black" stroke-width="6" x1="814.6657" x2="920.6194" y1="811.3492" y2="867.6858" /><line stroke="black" stroke-width="6" x1="835.9284" x2="940.8828" y1="772.1882" y2="830.3654" /><line stroke="black" stroke-width="6" x1="857.8713" x2="961.7944" y1="733.4043" y2="793.4043" /><text fill="black" font-size="210" text-anchor="middle" x="701.9867368053406" y="643.4042553191487">30</text><line stroke="blue" stroke-width="6" x1="857.8713" x2="2728.4862" y1="733.4043" y2="1813.4043" /><line stroke="red" stroke-width="6" x1="2979.0" x2="3159.0" y1="2010.0" y2="2010.0" /><line stroke="red" stroke-width="6" x1="3069.0" x2="3069.0" y1="1920.0" y2="2100.0" /><circle cx="3069.0" cy="2010.0" fill="red" r="24" /></svg>