<?xml version="1.0" encoding="utf-8" ?>
<svg baseProfile="tiny" height="100%" version="1.2" width="100%" xmlns="http://www.w3.org/2000/svg" xmlns:ev="http://www.w3.org/2001/xml-events" xmlns:xlink="http://www.w3.org/1999/xlink"><defs /><line stroke="black" x1="329.9038" x2="321.2436" y1="125.0" y2="130.0" /><text fill="black" text-anchor="middle" x="347.2243186433546" y="115.00000000000001">-30</text><line stroke="black" x1="329.9038" x2="225.9808" y1="125.0" y2="185.0" /><line stroke="black" x1="331.193" x2="322.4468" y1="127.2786" y2="132.1267" /><line stroke="black" x1="332.4421" x2="323.6127" y1="129.5793" y2="134.274" /><line stroke="black" x1="333.651" x2="324.7409" y1="131.9014" y2="136.4413" /><line stroke="black" x1="334.8191" x2="325.8312" y1="134.2443" y2="138.628" /><line stroke="black" x1="335.9462" x2="326.8831" y1="136.6073" y2="140.8334" /><line stroke="black" x1="335.9462" x2="281.5677" y1="136.6073" y2="161.9644" /><line stroke="black" x1="337.0318" x2="327.8964" y1="138.9895" y2="143.0569" /><line stroke="black" x1="338.0757" x2="328.8707" y1="141.3903" y2="145.2976" /><line stroke="black" x1="339.0776" x2="329.8057" y1="143.809" y2="147.5551" /><line stroke="black" x1="340.0371" x2="330.7013" y1="146.2448" y2="149.8285" /><line stroke="black" x1="340.9539" x2="331.557" y1="148.697" y2="152.1172" /><text fill="black" text-anchor="middle" x="359.7477455336044" y="141.85657563463633">-20</text><line stroke="black" x1="340.9539" x2="228.1908" y1="148.697" y2="189.7394" /><line stroke="black" x1="341.8278" x2="332.3726" y1="151.1648" y2="154.4205" /><line stroke="black" x1="342.6585" x2="333.1479" y1="153.6475" y2="156.7376" /><line stroke="black" x1="343.4457" x2="333.8827" y1="156.1442" y2="159.068" /><line stroke="black" x1="344.1893" x2="334.5766" y1="158.6544" y2="161.4108" /><line stroke="black" x1="344.8889" x2="335.2296" y1="161.1771" y2="163.7653" /><line stroke="black" x1="344.8889" x2="286.9333" y1="161.1771" y2="176.7063" /><line stroke="black" x1="345.5444" x2="335.8414" y1="163.7117" y2="166.1309" /><line stroke="black" x1="346.1555" x2="336.4118" y1="166.2573" y2="168.5069" /><line stroke="black" x1="346.7221" x2="336.9407" y1="168.8132" y2="170.8924" /><line stroke="black" x1="347.2441" x2="337.4278" y1="171.3787" y2="173.2867" /><line stroke="black" x1="347.7212" x2="337.8731" y1="173.9528" y2="175.6893" /><text fill="black" text-anchor="middle" x="367.4173180120754" y="170.47980979662185">-10</text><line stroke="black" x1="347.7212" x2="229.5442" y1="173.9528" y2="194.7906" /><line stroke="black" x1="348.1533" x2="338.2764" y1="176.5348" y2="178.0992" /><line stroke="black" x1="348.5402" x2="338.6375" y1="179.124" y2="180.5158" /><line stroke="black" x1="348.8819" x2="338.9565" y1="181.7196" y2="182.9383" /><line stroke="black" x1="349.1783" x2="339.2331" y1="184.3207" y2="185.366" /><line stroke="black" x1="349.4292" x2="339.4673" y1="186.9266" y2="187.7982" /><line stroke="black" x1="349.4292" x2="289.6575" y1="186.9266" y2="192.156" /><line stroke="black" x1="349.6346" x2="339.659" y1="189.5365" y2="190.2341" /><line stroke="black" x1="349.7944" x2="339.8081" y1="192.1496" y2="192.673" /><line stroke="black" x1="349.9086" x2="339.9147" y1="194.7651" y2="195.1141" /><line stroke="black" x1="349.9772" x2="339.9787" y1="197.3821" y2="197.5567" /><line stroke="black" x1="350.0" x2="340.0" y1="200.0" y2="200.0" /><text fill="black" text-anchor="middle" x="370.0" y="200.0">0</text><line stroke="black" x1="350.0" x2="230.0" y1="200.0" y2="200.0" /><line stroke="black" x1="349.9772" x2="339.9787" y1="202.6179" y2="202.4433" /><line stroke="black" x1="349.9086" x2="339.9147" y1="205.2349" y2="204.8859" /><line stroke="black" x1="349.7944" x2="339.8081" y1="207.8504" y2="207.327" /><line stroke="black" x1="349.6346" x2="339.659" y1="210.4635" y2="209.7659" /><line stroke="black" x1="349.4292" x2="339.4673" y1="213.0734" y2="212.2018" /><line stroke="black" x1="349.4292" x2="289.6575" y1="213.0734" y2="207.844" /><line stroke="black" x1="349.1783" x2="339.2331" y1="215.6793" y2="214.634" /><line stroke="black" x1="348.8819" x2="338.9565" y1="218.2804" y2="217.0617" /><line stroke="black" x1="348.5402" x2="338.6375" y1="220.876" y2="219.4842" /><line stroke="black" x1="348.1533" x2="338.2764" y1="223.4652" y2="221.9008" /><line stroke="black" x1="347.7212" x2="337.8731" y1="226.0472" y2="224.3107" /><text fill="black" text-anchor="middle" x="367.4173180120754" y="229.52019020337815">10</text><line stroke="black" x1="347.7212" x2="229.5442" y1="226.0472" y2="205.2094" /><line stroke="black" x1="347.2441" x2="337.4278" y1="228.6213" y2="226.7133" /><line stroke="black" x1="346.7221" x2="336.9407" y1="231.1868" y2="229.1076" /><line stroke="black" x1="346.1555" x2="336.4118" y1="233.7427" y2="231.4931" /><line stroke="black" x1="345.5444" x2="335.8414" y1="236.2883" y2="233.8691" /><line stroke="black" x1="344.8889" x2="335.2296" y1="238.8229" y2="236.2347" /><line stroke="black" x1="344.8889" x2="286.9333" y1="238.8229" y2="223.2937" /><line stroke="black" x1="344.1893" x2="334.5766" y1="241.3456" y2="238.5892" /><line stroke="black" x1="343.4457" x2="333.8827" y1="243.8558" y2="240.932" /><line stroke="black" x1="342.6585" x2="333.1479" y1="246.3525" y2="243.2624" /><line stroke="black" x1="341.8278" x2="332.3726" y1="248.8352" y2="245.5795" /><line stroke="black" x1="340.9539" x2="331.557" y1="251.303" y2="247.8828" /><text fill="black" text-anchor="middle" x="359.7477455336044" y="258.14342436536367">20</text><line stroke="black" x1="340.9539" x2="228.1908" y1="251.303" y2="210.2606" /><line stroke="black" x1="340.0371" x2="330.7013" y1="253.7552" y2="250.1715" /><line stroke="black" x1="339.0776" x2="329.8057" y1="256.191" y2="252.4449" /><line stroke="black" x1="338.0757" x2="328.8707" y1="258.6097" y2="254.7024" /><line stroke="black" x1="337.0318" x2="327.8964" y1="261.0105" y2="256.9431" /><line stroke="black" x1="335.9462" x2="326.8831" y1="263.3927" y2="259.1666" /><line stroke="black" x1="335.9462" x2="281.5677" y1="263.3927" y2="238.0356" /><line stroke="black" x1="334.8191" x2="325.8312" y1="265.7557" y2="261.372" /><line stroke="black" x1="333.651" x2="324.7409" y1="268.0986" y2="263.5587" /><line stroke="black" x1="332.4421" x2="323.6127" y1="270.4207" y2="265.726" /><line stroke="black" x1="331.193" x2="322.4468" y1="272.7214" y2="267.8733" /><line stroke="black" x1="329.9038" x2="321.2436" y1="275.0" y2="270.0" /><text fill="black" text-anchor="middle" x="347.2243186433546" y="285.0">30</text><line stroke="black" x1="329.9038" x2="225.9808" y1="275.0" y2="215.0" /><line stroke="black" x1="70.0962" x2="78.7564" y1="275.0" y2="270.0" /><text fill="black" text-anchor="middle" x="52.77568135664541" y="285.0">-30</text><line stroke="black" x1="70.0962" x2="174.0192" y1="275.0" y2="215.0" /><line stroke="black" x1="68.807" x2="77.5532" y1="272.7214" y2="267.8733" /><line stroke="black" x1="67.5579" x2="76.3873" y1="270.4207" y2="265.726" /><line stroke="black" x1="66.349" x2="75.2591" y1="268.0986" y2="263.5587" /><line stroke="black" x1="65.1809" x2="74.1688" y1="265.7557" y2="261.372" /><line stroke="black" x1="64.0538" x2="73.1169" y1="263.3927" y2="259.1666" /><line stroke="black" x1="64.0538" x2="118.4323" y1="263.3927" y2="238.0356" /><line stroke="black" x1="62.9682" x2="72.1036" y1="261.0105" y2="256.9431" /><line stroke="black" x1="61.9243" x2="71.1293" y1="258.6097" y2="254.7024" /><line stroke="black" x1="60.9224" x2="70.1943" y1="256.191" y2="252.4449" /><line stroke="black" x1="59.9629" x2="69.2987" y1="253.7552" y2="250.1715" /><line stroke="black" x1="59.0461" x2="68.443" y1="251.303" y2="247.8828" /><text fill="black" text-anchor="middle" x="40.252254466395584" y="258.1434243653637">-20</text><line stroke="black" x1="59.0461" x2="171.8092" y1="251.303" y2="210.2606" /><line stroke="black" x1="58.1722" x2="67.6274" y1="248.8352" y2="245.5795" /><line stroke="black" x1="57.3415" x2="66.8521" y1="246.3525" y2="243.2624" /><line stroke="black" x1="56.5543" x2="66.1173" y1="243.8558" y2="240.932" /><line stroke="black" x1="55.8107" x2="65.4234" y1="241.3456" y2="238.5892" /><line stroke="black" x1="55.1111" x2="64.7704" y1="238.8229" y2="236.2347" /><line stroke="black" x1="55.1111" x2="113.0667" y1="238.8229" y2="223.2937" /><line stroke="black" x1="54.4556" x2="64.1586" y1="236.2883" y2="233.8691" /><line stroke="black" x1="53.8445" x2="63.5882" y1="233.7427" y2="231.4931" /><line stroke="black" x1="53.2779" x2="63.0593" y1="231.1868" y2="229.1076" /><line stroke="black" x1="52.7559" x2="62.5722" y1="228.6213" y2="226.7133" /><line stroke="black" x1="52.2788" x2="62.1269" y1="226.0472" y2="224.3107" /><text fill="black" text-anchor="middle" x="32.582681987924644" y="229.52019020337815">-10</text><line stroke="black" x1="52.2788" x2="170.4558" y1="226.0472" y2="205.2094" /><line stroke="black" x1="51.8467" x2="61.7236" y1="223.4652" y2="221.9008" /><line stroke="black" x1="51.4598" x2="61.3625" y1="220.876" y2="219.4842" /><line stroke="black" x1="51.1181" x2="61.0435" y1="218.2804" y2="217.0617" /><line stroke="black" x1="50.8217" x2="60.7669" y1="215.6793" y2="214.634" /><line stroke="black" x1="50.5708" x2="60.5327" y1="213.0734" y2="212.2018" /><line stroke="black" x1="50.5708" x2="110.3425" y1="213.0734" y2="207.844" /><line stroke="black" x1="50.3654" x2="60.341" y1="210.4635" y2="209.7659" /><line stroke="black" x1="50.2056" x2="60.1919" y1="207.8504" y2="207.327" /><line stroke="black" x1="50.0914" x2="60.0853" y1="205.2349" y2="204.8859" /><line stroke="black" x1="50.0228" x2="60.0213" y1="202.6179" y2="202.4433" /><line stroke="black" x1="50.0" x2="60.0" y1="200.0" y2="200.0" /><text fill="black" text-anchor="middle" x="30.0" y="200.00000000000003">0</text><line stroke="black" x1="50.0" x2="170.0" y1="200.0" y2="200.0" /><line stroke="black" x1="50.0228" x2="60.0213" y1="197.3821" y2="197.5567" /><line stroke="black" x1="50.0914" x2="60.0853" y1="194.7651" y2="195.1141" /><line stroke="black" x1="50.2056" x2="60.1919" y1="192.1496" y2="192.673" /><line stroke="black" x1="50.3654" x2="60.341" y1="189.5365" y2="190.2341" /><line stroke="black" x1="50.5708" x2="60.5327" y1="186.9266" y2="187.7982" /><line stroke="black" x1="50.5708" x2="110.3425" y1="186.9266" y2="192.156" /><line stroke="black" x1="50.8217" x2="60.7669" y1="184.3207" y2="185.366" /><line stroke="black" x1="51.1181" x2="61.0435" y1="181.7196" y2="182.9383" /><line stroke="black" x1="51.4598" x2="61.3625" y1="179.124" y2="180.5158" /><line stroke="black" x1="51.8467" x2="61.7236" y1="176.5348" y2="178.0992" /><line stroke="black" x1="52.2788" x2="62.1269" y1="173.9528" y2="175.6893" /><text fill="black" text-anchor="middle" x="32.582681987924644" y="170.47980979662182">10</text><line stroke="black" x1="52.2788" x2="170.4558" y1="173.9528" y2="194.7906" /><line stroke="black" x1="52.7559" x2="62.5722" y1="171.3787" y2="173.2867" /><line stroke="black" x1="53.2779" x2="63.0593" y1="168.8132" y2="170.8924" /><line stroke="black" x1="53.8445" x2="63.5882" y1="166.2573" y2="168.5069" /><line stroke="black" x1="54.4556" x2="64.1586" y1="163.7117" y2="166.1309" /><line stroke="black" x1="55.1111" x2="64.7704" y1="161.1771" y2="163.7653" /><line stroke="black" x1="55.1111" x2="113.0667" y1="161.1771" y2="176.7063" /><line stroke="black" x1="55.8107" x2="65.4234" y1="158.6544" y2="161.4108" /><line stroke="black" x1="56.5543" x2="66.1173" y1="156.1442" y2="159.068" /><line stroke="black" x1="57.3415" x2="66.8521" y1="153.6475" y2="156.7376" /><line stroke="black" x1="58.1722" x2="67.6274" y1="151.1648" y2="154.4205" /><line stroke="black" x1="59.0461" x2="68.443" y1="148.697" y2="152.1172" /><text fill="black" text-anchor="middle" x="40.252254466395556" y="141.85657563463633">20</text><line stroke="black" x1="59.0461" x2="171.8092" y1="148.697" y2="189.7394" /><line stroke="black" x1="59.9629" x2="69.2987" y1="146.2448" y2="149.8285" /><line stroke="black" x1="60.9224" x2="70.1943" y1="143.809" y2="147.5551" /><line stroke="black" x1="61.9243" x2="71.1293" y1="141.3903" y2="145.2976" /><line stroke="black" x1="62.9682" x2="72.1036" y1="138.9895" y2="143.0569" /><line stroke="black" x1="64.0538" x2="73.1169" y1="136.6073" y2="140.8334" /><line stroke="black" x1="64.0538" x2="118.4323" y1="136.6073" y2="161.9644" /><line stroke="black" x1="65.1809" x2="74.1688" y1="134.2443" y2="138.628" /><line stroke="black" x1="66.349" x2="75.2591" y1="131.9014" y2="136.4413" /><line stroke="black" x1="67.5579" x2="76.3873" y1="129.5793" y2="134.274" /><line stroke="black" x1="68.807" x2="77.5532" y1="127.2786" y2="132.1267" /><line stroke="black" x1="70.0962" x2="78.7564" y1="125.0" y2="130.0" /><text fill="black" text-anchor="middle" x="52.775681356645435" y="114.99999999999999">30</text><line stroke="black" x1="70.0962" x2="174.0192" y1="125.0" y2="185.0" /><line stroke="black" x1="194" x2="206" y1="200" y2="200" /><line stroke="black" x1="200" x2="200" y1="194" y2="206" /><circle cx="200" cy="200" fill="black" r="2" /></svg>