<?xml version="1.0" encoding="utf-8" ?>
<svg baseProfile="tiny" height="4000" version="1.2" width="6000" xmlns="http://www.w3.org/2000/svg" xmlns:ev="http://www.w3.org/2001/xml-events" xmlns:xlink="http://www.w3.org/1999/xlink"><defs /><line stroke="black" stroke-width="6" x1="5231.1287" x2="5127.2056" y1="703.4043" y2="763.4043" /><text fill="black" font-size="210" text-anchor="middle" x="5387.01326319466" y="613.4042553191491">-30</text><line stroke="blue" stroke-width="6" x1="5231.1287" x2="3360.5138" y1="703.4043" y2="1783.4043" /><line stroke="black" stroke-width="6" x1="5253.0716" x2="5148.1172" y1="742.1882" y2="800.3654" /><line stroke="black" stroke-width="6" x1="5274.3343" x2="5168.3806" y1="781.3492" y2="837.6858" /><line stroke="black" stroke-width="6" x1="5294.9103" x2="5187.9895" y1="820.8753" y2="875.3542" /><line stroke="black" stroke-width="6" x1="5314.7933" x2="5206.938" y1="860.7545" y2="913.3591" /><line stroke="black" stroke-width="6" x1="5333.9773" x2="5225.2204" y1="900.9747" y2="951.6888" /><line stroke="blue" stroke-width="6" x1="5333.9773" x2="3648.2448" y1="900.9747" y2="1687.0446" /><line stroke="black" stroke-width="6" x1="5352.4565" x2="5242.831" y1="941.5235" y2="990.3319" /><line stroke="black" stroke-width="6" x1="5370.2252" x2="5259.7646" y1="982.3886" y2="1029.2763" /><line stroke="black" stroke-width="6" x1="5387.2779" x2="5276.0159" y1="1023.5576" y2="1068.5104" /><line stroke="black" stroke-width="6" x1="5403.6096" x2="5291.5799" y1="1065.018" y2="1108.0222" /><line stroke="black" stroke-width="6" x1="5419.2152" x2="5306.4521" y1="1106.7571" y2="1147.7995" /><text fill="black" font-size="210" text-anchor="middle" x="5588.359873748039" y="1045.1934550720125">-20</text><line stroke="blue" stroke-width="6" x1="5419.2152" x2="3389.4791" y1="1106.7571" y2="1845.5206" /><line stroke="black" stroke-width="6" x1="5434.09" x2="5320.6278" y1="1148.7622" y2="1187.8303" /><line stroke="black" stroke-width="6" x1="5448.2294" x2="5334.1026" y1="1191.0204" y2="1228.1025" /><line stroke="black" stroke-width="6" x1="5461.6292" x2="5346.8726" y1="1233.5191" y2="1268.6037" /><line stroke="black" stroke-width="6" x1="5474.2852" x2="5358.9338" y1="1276.245" y2="1309.3215" /><line stroke="black" stroke-width="6" x1="5486.1936" x2="5370.2825" y1="1319.1854" y2="1350.2437" /><line stroke="blue" stroke-width="6" x1="5486.1936" x2="3689.5716" y1="1319.1854" y2="1800.5888" /><line stroke="black" stroke-width="6" x1="5497.3508" x2="5380.9153" y1="1362.3271" y2="1391.3577" /><line stroke="black" stroke-width="6" x1="5507.7534" x2="5390.8289" y1="1405.6569" y2="1432.651" /><line stroke="black" stroke-width="6" x1="5517.3981" x2="5400.0204" y1="1449.1616" y2="1474.111" /><line stroke="black" stroke-width="6" x1="5526.2822" x2="5408.4869" y1="1492.8281" y2="1515.7252" /><line stroke="black" stroke-width="6" x1="5534.4028" x2="5416.2258" y1="1536.643" y2="1557.4807" /><text fill="black" font-size="210" text-anchor="middle" x="5711.668169190389" y="1505.3862786575773">-10</text><line stroke="blue" stroke-width="6" x1="5534.4028" x2="3407.218" y1="1536.643" y2="1911.723" /><line stroke="black" stroke-width="6" x1="5541.7575" x2="5423.2349" y1="1580.5929" y2="1599.365" /><line stroke="black" stroke-width="6" x1="5548.344" x2="5429.5118" y1="1624.6644" y2="1641.3652" /><line stroke="black" stroke-width="6" x1="5554.1604" x2="5435.0548" y1="1668.8442" y2="1683.4686" /><line stroke="black" stroke-width="6" x1="5559.2048" x2="5439.8622" y1="1713.1188" y2="1725.6622" /><line stroke="black" stroke-width="6" x1="5563.4758" x2="5443.9325" y1="1757.4747" y2="1767.9334" /><line stroke="blue" stroke-width="6" x1="5563.4758" x2="3710.5537" y1="1757.4747" y2="1919.5844" /><line stroke="black" stroke-width="6" x1="5566.972" x2="5447.2644" y1="1801.8984" y2="1810.2691" /><line stroke="black" stroke-width="6" x1="5569.6924" x2="5449.8569" y1="1846.3763" y2="1852.6566" /><line stroke="black" stroke-width="6" x1="5571.6362" x2="5451.7093" y1="1890.8949" y2="1895.0828" /><line stroke="black" stroke-width="6" x1="5572.8026" x2="5452.8209" y1="1935.4407" y2="1937.535" /><line stroke="black" stroke-width="6" x1="5573.1915" x2="5453.1915" y1="1980.0" y2="1980.0" /><text fill="black" font-size="210" text-anchor="middle" x="5753.191489361702" y="1980.0">0</text><line stroke="blue" stroke-width="6" x1="5573.1915" x2="3413.1915" y1="1980.0" y2="1980.0" /><line stroke="black" stroke-width="6" x1="5572.8026" x2="5452.8209" y1="2024.5593" y2="2022.465" /><line stroke="black" stroke-width="6" x1="5571.6362" x2="5451.7093" y1="2069.1051" y2="2064.9172" /><line stroke="black" stroke-width="6" x1="5569.6924" x2="5449.8569" y1="2113.6237" y2="2107.3434" /><line stroke="black" stroke-width="6" x1="5566.972" x2="5447.2644" y1="2158.1016" y2="2149.7309" /><line stroke="black" stroke-width="6" x1="5563.4758" x2="5443.9325" y1="2202.5253" y2="2192.0666" /><line stroke="blue" stroke-width="6" x1="5563.4758" x2="3710.5537" y1="2202.5253" y2="2040.4156" /><line stroke="black" stroke-width="6" x1="5559.2048" x2="5439.8622" y1="2246.8812" y2="2234.3378" /><line stroke="black" stroke-width="6" x1="5554.1604" x2="5435.0548" y1="2291.1558" y2="2276.5314" /><line stroke="black" stroke-width="6" x1="5548.344" x2="5429.5118" y1="2335.3356" y2="2318.6348" /><line stroke="black" stroke-width="6" x1="5541.7575" x2="5423.2349" y1="2379.4071" y2="2360.635" /><line stroke="black" stroke-width="6" x1="5534.4028" x2="5416.2258" y1="2423.357" y2="2402.5193" /><text fill="black" font-size="210" text-anchor="middle" x="5711.668169190389" y="2454.6137213424227">10</text><line stroke="blue" stroke-width="6" x1="5534.4028" x2="3407.218" y1="2423.357" y2="2048.277" /><line stroke="black" stroke-width="6" x1="5526.2822" x2="5408.4869" y1="2467.1719" y2="2444.2748" /><line stroke="black" stroke-width="6" x1="5517.3981" x2="5400.0204" y1="2510.8384" y2="2485.889" /><line stroke="black" stroke-width="6" x1="5507.7534" x2="5390.8289" y1="2554.3431" y2="2527.349" /><line stroke="black" stroke-width="6" x1="5497.3508" x2="5380.9153" y1="2597.6729" y2="2568.6423" /><line stroke="black" stroke-width="6" x1="5486.1936" x2="5370.2825" y1="2640.8146" y2="2609.7563" /><line stroke="blue" stroke-width="6" x1="5486.1936" x2="3689.5716" y1="2640.8146" y2="2159.4112" /><line stroke="black" stroke-width="6" x1="5474.2852" x2="5358.9338" y1="2683.755" y2="2650.6785" /><line stroke="black" stroke-width="6" x1="5461.6292" x2="5346.8726" y1="2726.4809" y2="2691.3963" /><line stroke="black" stroke-width="6" x1="5448.2294" x2="5334.1026" y1="2768.9796" y2="2731.8975" /><line stroke="black" stroke-width="6" x1="5434.09" x2="5320.6278" y1="2811.2378" y2="2772.1697" /><line stroke="black" stroke-width="6" x1="5419.2152" x2="5306.4521" y1="2853.2429" y2="2812.2005" /><text fill="black" font-size="210" text-anchor="middle" x="5588.359873748039" y="2914.8065449279875">20</text><line stroke="blue" stroke-width="6" x1="5419.2152" x2="3389.4791" y1="2853.2429" y2="2114.4794" /><line stroke="black" stroke-width="6" x1="5403.6096" x2="5291.5799" y1="2894.982" y2="2851.9778" /><line stroke="black" stroke-width="6" x1="5387.2779" x2="5276.0159" y1="2936.4424" y2="2891.4896" /><line stroke="black" stroke-width="6" x1="5370.2252" x2="5259.7646" y1="2977.6114" y2="2930.7237" /><line stroke="black" stroke-width="6" x1="5352.4565" x2="5242.831" y1="3018.4765" y2="2969.6681" /><line stroke="black" stroke-width="6" x1="5333.9773" x2="5225.2204" y1="3059.0253" y2="3008.3112" /><line stroke="blue" stroke-width="6" x1="5333.9773" x2="3648.2448" y1="3059.0253" y2="2272.9554" /><line stroke="black" stroke-width="6" x1="5314.7933" x2="5206.938" y1="3099.2455" y2="3046.6409" /><line stroke="black" stroke-width="6" x1="5294.9103" x2="5187.9895" y1="3139.1247" y2="3084.6458" /><line stroke="black" stroke-width="6" x1="5274.3343" x2="5168.3806" y1="3178.6508" y2="3122.3142" /><line stroke="black" stroke-width="6" x1="5253.0716" x2="5148.1172" y1="3217.8118" y2="3159.6346" /><line stroke="black" stroke-width="6" x1="5231.1287" x2="5127.2056" y1="3256.5957" y2="3196.5957" /><text fill="black" font-size="210" text-anchor="middle" x="5387.01326319466" y="3346.5957446808507">30</text><line stroke="blue" stroke-width="6" x1="5231.1287" x2="3360.5138" y1="3256.5957" y2="2176.5957" /><line stroke="black" stroke-width="6" x1="808.8713" x2="912.7944" y1="3256.5957" y2="3196.5957" /><text fill="black" font-size="210" text-anchor="middle" x="652.9867368053406" y="3346.5957446808507">-30</text><line stroke="blue" stroke-width="6" x1="808.8713" x2="2679.4862" y1="3256.5957" y2="2176.5957" /><line stroke="black" stroke-width="6" x1="786.9284" x2="891.8828" y1="3217.8118" y2="3159.6346" /><line stroke="black" stroke-width="6" x1="765.6657" x2="871.6194" y1="3178.6508" y2="3122.3142" /><line stroke="black" stroke-width="6" x1="745.0897" x2="852.0105" y1="3139.1247" y2="3084.6458" /><line stroke="black" stroke-width="6" x1="725.2067" x2="833.062" y1="3099.2455" y2="3046.6409" /><line stroke="black" stroke-width="6" x1="706.0227" x2="814.7796" y1="3059.0253" y2="3008.3112" /><line stroke="blue" stroke-width="6" x1="706.0227" x2="2391.7552" y1="3059.0253" y2="2272.9554" /><line stroke="black" stroke-width="6" x1="687.5435" x2="797.169" y1="3018.4765" y2="2969.6681" /><line stroke="black" stroke-width="6" x1="669.7748" x2="780.2354" y1="2977.6114" y2="2930.7237" /><line stroke="black" stroke-width="6" x1="652.7221" x2="763.9841" y1="2936.4424" y2="2891.4896" /><line stroke="black" stroke-width="6" x1="636.3904" x2="748.4201" y1="2894.982" y2="2851.9778" /><line stroke="black" stroke-width="6" x1="620.7848" x2="733.5479" y1="2853.2429" y2="2812.2005" /><text fill="black" font-size="210" text-anchor="middle" x="451.6401262519621" y="2914.806544927988">-20</text><line stroke="blue" stroke-width="6" x1="620.7848" x2="2650.5209" y1="2853.2429" y2="2114.4794" /><line stroke="black" stroke-width="6" x1="605.91" x2="719.3722" y1="2811.2378" y2="2772.1697" /><line stroke="black" stroke-width="6" x1="591.7706" x2="705.8974" y1="2768.9796" y2="2731.8975" /><line stroke="black" stroke-width="6" x1="578.3708" x2="693.1274" y1="2726.4809" y2="2691.3963" /><line stroke="black" stroke-width="6" x1="565.7148" x2="681.0662" y1="2683.755" y2="2650.6785" /><line stroke="black" stroke-width="6" x1="553.8064" x2="669.7175" y1="2640.8146" y2="2609.7563" /><line stroke="blue" stroke-width="6" x1="553.8064" x2="2350.4284" y1="2640.8146" y2="2159.4112" /><line stroke="black" stroke-width="6" x1="542.6492" x2="659.0847" y1="2597.6729" y2="2568.6423" /><line stroke="black" stroke-width="6" x1="532.2466" x2="649.1711" y1="2554.3431" y2="2527.349" /><line stroke="black" stroke-width="6" x1="522.6019" x2="639.9796" y1="2510.8384" y2="2485.889" /><line stroke="black" stroke-width="6" x1="513.7178" x2="631.5131" y1="2467.1719" y2="2444.2748" /><line stroke="black" stroke-width="6" x1="505.5972" x2="623.7742" y1="2423.357" y2="2402.5193" /><text fill="black" font-size="210" text-anchor="middle" x="328.3318308096118" y="2454.6137213424227">-10</text><line stroke="blue" stroke-width="6" x1="505.5972" x2="2632.782" y1="2423.357" y2="2048.277" /><line stroke="black" stroke-width="6" x1="498.2425" x2="616.7651" y1="2379.4071" y2="2360.635" /><line stroke="black" stroke-width="6" x1="491.656" x2="610.4882" y1="2335.3356" y2="2318.6348" /><line stroke="black" stroke-width="6" x1="485.8396" x2="604.9452" y1="2291.1558" y2="2276.5314" /><line stroke="black" stroke-width="6" x1="480.7952" x2="600.1378" y1="2246.8812" y2="2234.3378" /><line stroke="black" stroke-width="6" x1="476.5242" x2="596.0675" y1="2202.5253" y2="2192.0666" /><line stroke="blue" stroke-width="6" x1="476.5242" x2="2329.4463" y1="2202.5253" y2="2040.4156" /><line stroke="black" stroke-width="6" x1="473.028" x2="592.7356" y1="2158.1016" y2="2149.7309" /><line stroke="black" stroke-width="6" x1="470.3076" x2="590.1431" y1="2113.6237" y2="2107.3434" /><line stroke="black" stroke-width="6" x1="468.3638" x2="588.2907" y1="2069.1051" y2="2064.9172" /><line stroke="black" stroke-width="6" x1="467.1974" x2="587.1791" y1="2024.5593" y2="2022.465" /><line stroke="black" stroke-width="6" x1="466.8085" x2="586.8085" y1="1980.0" y2="1980.0" /><text fill="black" font-size="210" text-anchor="middle" x="286.8085106382978" y="1980.0000000000002">0</text><line stroke="blue" stroke-width="6" x1="466.8085" x2="2626.8085" y1="1980.0" y2="1980.0" /><line stroke="black" stroke-width="6" x1="467.1974" x2="587.1791" y1="1935.4407" y2="1937.535" /><line stroke="black" stroke-width="6" x1="468.3638" x2="588.2907" y1="1890.8949" y2="1895.0828" /><line stroke="black" stroke-width="6" x1="470.3076" x2="590.1431" y1="1846.3763" y2="1852.6566" /><line stroke="black" stroke-width="6" x1="473.028" x2="592.7356" y1="1801.8984" y2="1810.2691" /><line stroke="black" stroke-width="6" x1="476.5242" x2="596.0675" y1="1757.4747" y2="1767.9334" /><line stroke="blue" stroke-width="6" x1="476.5242" x2="2329.4463" y1="1757.4747" y2="1919.5844" /><line stroke="black" stroke-width="6" x1="480.7952" x2="600.1378" y1="1713.1188" y2="1725.6622" /><line stroke="black" stroke-width="6" x1="485.8396" x2="604.9452" y1="1668.8442" y2="1683.4686" /><line stroke="black" stroke-width="6" x1="491.656" x2="610.4882" y1="1624.6644" y2="1641.3652" /><line stroke="black" stroke-width="6" x1="498.2425" x2="616.7651" y1="1580.5929" y2="1599.365" /><line stroke="black" stroke-width="6" x1="505.5972" x2="623.7742" y1="1536.643" y2="1557.4807" /><text fill="black" font-size="210" text-anchor="middle" x="328.3318308096118" y="1505.386278657577">10</text><line stroke="blue" stroke-width="6" x1="505.5972" x2="2632.782" y1="1536.643" y2="1911.723" /><line stroke="black" stroke-width="6" x1="513.7178" x2="631.5131" y1="1492.8281" y2="1515.7252" /><line stroke="black" stroke-width="6" x1="522.6019" x2="639.9796" y1="1449.1616" y2="1474.111" /><line stroke="black" stroke-width="6" x1="532.2466" x2="649.1711" y1="1405.6569" y2="1432.651" /><line stroke="black" stroke-width="6" x1="542.6492" x2="659.0847" y1="1362.3271" y2="1391.3577" /><line stroke="black" stroke-width="6" x1="553.8064" x2="669.7175" y1="1319.1854" y2="1350.2437" /><line stroke="blue" stroke-width="6" x1="553.8064" x2="2350.4284" y1="1319.1854" y2="1800.5888" /><line stroke="black" stroke-width="6" x1="565.7148" x2="681.0662" y1="1276.245" y2="1309.3215" /><line stroke="black" stroke-width="6" x1="578.3708" x2="693.1274" y1="1233.5191" y2="1268.6037" /><line stroke="black" stroke-width="6" x1="591.7706" x2="705.8974" y1="1191.0204" y2="1228.1025" /><line stroke="black" stroke-width="6" x1="605.91" x2="719.3722" y1="1148.7622" y2="1187.8303" /><line stroke="black" stroke-width="6" x1="620.7848" x2="733.5479" y1="1106.7571" y2="1147.7995" /><text fill="black" font-size="210" text-anchor="middle" x="451.64012625196165" y="1045.193455072013">20</text><line stroke="blue" stroke-width="6" x1="620.7848" x2="2650.5209" y1="1106.7571" y2="1845.5206" /><line stroke="black" stroke-width="6" x1="636.3904" x2="748.4201" y1="1065.018" y2="1108.0222" /><line stroke="black" stroke-width="6" x1="652.7221" x2="763.9841" y1="1023.5576" y2="1068.5104" /><line stroke="black" stroke-width="6" x1="669.7748" x2="780.2354" y1="982.3886" y2="1029.2763" /><line stroke="black" stroke-width="6" x1="687.5435" x2="797.169" y1="941.5235" y2="990.3319" /><line stroke="black" stroke-width="6" x1="706.0227" x2="814.7796" y1="900.9747" y2="951.6888" /><line stroke="blue" stroke-width="6" x1="706.0227" x2="2391.7552" y1="900.9747" y2="1687.0446" /><line stroke="black" stroke-width="6" x1="725.2067" x2="833.062" y1="860.7545" y2="913.3591" /><line stroke="black" stroke-width="6" x1="745.0897" x2="852.0105" y1="820.8753" y2="875.3542" /><line stroke="black" stroke-width="6" x1="765.6657" x2="871.6194" y1="781.3492" y2="837.6858" /><line stroke="black" stroke-width="6" x1="786.9284" x2="891.8828" y1="742.1882" y2="800.3654" /><line stroke="black" stroke-width="6" x1="808.8713" x2="912.7944" y1="703.4043" y2="763.4043" /><text fill="black" font-size="210" text-anchor="middle" x="652.9867368053406" y="613.4042553191487">30</text><line stroke="blue" stroke-width="6" x1="808.8713" x2="2679.4862" y1="703.4043" y2="1783.4043" /><line stroke="red" stroke-width="6" x1="2930.0" x2="3110.0" y1="1980.0" y2="1980.0" /><line stroke="red" stroke-width="6" x1="3020.0" x2="3020.0" y1="1890.0" y2="2070.0" /><circle cx="3020.0" cy="1980.0" fill="red" r="24" /></svg>